HIERARCHY
ROOT pelvis
{
  OFFSET 0 100 0
  CHANNELS 6 Xposition Yposition Zposition Zrotation Xrotation Yrotation
  JOINT pelvis_right_femur
  {
    OFFSET -10.78128 -3.44521 -0.5502486
    CHANNELS 3 Zrotation Xrotation Yrotation
    JOINT right_femur_tibia
    {
      OFFSET -0.8047443 -44.0398 -0.1307829
      CHANNELS 3 Zrotation Xrotation Yrotation
      JOINT right_tibia_foot
      {
        OFFSET 3.006224 -47.83518 -5
        CHANNELS 3 Zrotation Xrotation Yrotation
        End Site
        {
          OFFSET 0 -5 15
        }
      }
    }
  }
  JOINT pelvis_left_femur
  {
    OFFSET 10.78128 -3.44521 -0.5502486
    CHANNELS 3 Zrotation Xrotation Yrotation
    JOINT left_femur_tibia
    {
      OFFSET 0.8047443 -44.0398 -0.1307829
      CHANNELS 3 Zrotation Xrotation Yrotation
      JOINT left_tibia_foot
      {
        OFFSET -4.370144 -48.10324 -4.275266
        CHANNELS 3 Zrotation Xrotation Yrotation
        End Site
        {
          OFFSET 0 -5 15
        }
      }
    }
  }
  JOINT pelvis_spine1
  {
    OFFSET 0 6.468898 -3.129235
    CHANNELS 3 Zrotation Xrotation Yrotation
    JOINT spine1
    {
      OFFSET 0 23.15396 4.99043
      CHANNELS 3 Zrotation Xrotation Yrotation
      JOINT spine2
      {
        OFFSET 0 20.79997 -5.064912
        CHANNELS 3 Zrotation Xrotation Yrotation
        JOINT neck
        {
          OFFSET 0 14.38658 9.616178
          CHANNELS 3 Zrotation Xrotation Yrotation
          End Site
          {
            OFFSET 0 20 0
          }
        }
      }
      JOINT right_manubrium
      {
        OFFSET -5.722621 16.35077 3.967754
        CHANNELS 3 Zrotation Xrotation Yrotation
        JOINT right_clavicle
        {
          OFFSET -13.16364 1.694482 -4.693211
          CHANNELS 3 Zrotation Xrotation Yrotation
          JOINT right_humerus
          {
            OFFSET -28.5034 -0.3100689 -2.792744
            CHANNELS 3 Zrotation Xrotation Yrotation
            JOINT right_radius
            {
              OFFSET -25.15693 0.02248979 -1.271978
              CHANNELS 3 Zrotation Xrotation Yrotation
              End Site
              {
                OFFSET -15 0 0
              }
            }
          }
        }
      }
      JOINT left_manubrium
      {
        OFFSET 5.722621 16.35077 3.967754
        CHANNELS 3 Zrotation Xrotation Yrotation
        JOINT left_clavicle
        {
          OFFSET 13.16364 1.694482 -4.693211
          CHANNELS 3 Zrotation Xrotation Yrotation
          JOINT left_humerus
          {
            OFFSET 29.39168 -1.063119 -2.237045
            CHANNELS 3 Zrotation Xrotation Yrotation
            JOINT left_radius
            {
              OFFSET 24.59957 -0.9528479 0.9047498
              CHANNELS 3 Zrotation Xrotation Yrotation
              End Site
              {
                OFFSET 15 -0 -0
              }
            }
          }
        }
      }
    }
  }
}
MOTION
Frames: 9
Frame Time: 0.0416666666667
0 103.5113 0 2.196498 -1.162658 0.2781967 1.216386 -10.11051 8.667897 -0 33.92348 -0 -5.264588 -17.84611 -2.234449 -8.057642 10.0992 -23.46093 -0 5.181073 -0 7.658905 -16.18396 26.53829 -4.359198 -5.051486 4.971818 2.03492 9.212756 -7.733668 0.8356685 22.79056 7.185806 3.269746 -23.10774 8.804719 6.365918 -19.73975 11.57944 86.3177 35.94719 -19.81265 -0 0 16.21394 -7.570407 8.24261 4.611836 5.522948 -19.481 -1.711679 -94.76407 29.74689 22.86934 0 0 -16.07064 3.507014 17.8764 9.532607
0.347592 103.4739 1.40596 2.083844 -0.975486 0.4743489 1.411232 -11.09592 8.43984 -0 32.45668 -0 -5.300981 -17.23115 -2.013779 -7.972911 10.2468 -23.25262 -0 5.334083 -0 7.477344 -16.50753 26.28208 -4.336203 -4.865737 4.953059 2.141463 9.183297 -7.730759 0.8606702 22.65006 7.222818 3.329023 -23.24918 8.828246 6.333062 -19.64248 11.58312 86.32523 35.92666 -19.90573 -0 0 16.03378 -7.595207 8.275272 4.622008 5.63758 -19.52696 -1.744954 -94.62411 29.70761 22.60308 0 0 -16.49617 3.569653 17.73901 9.454721
0.7147822 103.3592 2.949724 1.94078 -0.6958999 0.6364593 1.64318 -12.42265 8.091237 -0 30.02926 -0 -5.345034 -16.31948 -1.625004 -7.876015 10.44338 -22.92993 -0 5.60684 -0 7.195203 -16.95749 25.88262 -4.313702 -4.617868 4.943616 2.29068 9.14227 -7.715783 0.9001016 22.44773 7.270071 3.414851 -23.44519 8.857343 6.277555 -19.49105 11.58427 86.34978 35.89621 -20.05201 -0 0 15.75877 -7.629428 8.325931 4.633795 5.811474 -19.59721 -1.791584 -94.41363 29.64968 22.19615 0 0 -17.12218 3.655719 17.54591 9.337622
1.106101 103.1477 4.682169 1.782741 -0.32903 0.7761192 1.880521 -13.94465 7.636682 -0 26.69609 -0 -5.400764 -15.16461 -1.073343 -7.778041 10.67513 -22.48787 -0 6.055162 -0 6.793922 -17.48162 25.32108 -4.286744 -4.337138 4.942591 2.466552 9.091011 -7.690983 0.9492618 22.20117 7.323195 3.520532 -23.67781 8.886052 6.198062 -19.2844 11.57633 86.40631 35.85656 -20.25415 -0 0 15.38974 -7.671055 8.396612 4.647146 6.02971 -19.69103 -1.848359 -94.13832 29.57373 21.66796 0 0 -17.89976 3.753556 17.30431 9.19456
1.521976 102.8374 6.658429 1.624397 0.1164465 0.9244199 2.096779 -15.46102 7.101899 -0 22.64213 -0 -5.477107 -13.85564 -0.3900071 -7.685067 10.9284 -21.91759 -0 6.774323 -0 6.239432 -17.99782 24.5636 -4.239494 -4.063479 4.939394 2.644538 9.029982 -7.665476 0.998382 21.9384 7.378051 3.63534 -23.9218 8.905653 6.094514 -19.02069 11.54868 86.51822 35.80896 -20.51627 -0 0 14.92667 -7.717743 8.490935 4.663544 6.264087 -19.80679 -1.911274 -93.80654 29.48069 21.05476 0 0 -18.74637 3.845323 17.01993 9.050018
1.959362 102.4449 8.93625 1.475636 0.6269282 1.128092 2.275498 -16.77018 6.516287 -0 18.11292 -0 -5.583674 -12.49163 0.3824677 -7.59879 11.18363 -21.21393 -0 7.868108 -0 5.498606 -18.4115 23.57987 -4.152892 -3.834439 4.922286 2.800562 8.959971 -7.649126 1.03671 21.68776 7.430672 3.747677 -24.15171 8.906841 5.96904 -18.69994 11.49285 86.70596 35.75464 -20.83912 -0 0 14.3724 -7.76824 8.612363 4.685391 6.482783 -19.94029 -1.977308 -93.43029 29.3713 20.39989 0 0 -19.57334 3.913113 16.69792 8.930062
2.414553 102.0022 11.56847 1.335733 1.176142 1.431753 2.415268 -17.70592 5.913039 -0 13.39811 -0 -5.731618 -11.16988 1.194688 -7.513551 11.39712 -20.38547 -0 9.441031 -0 4.552916 -18.6138 22.36222 -4.008938 -3.672097 4.887967 2.919666 8.884294 -7.646047 1.055415 21.46884 7.476775 3.847073 -24.34678 8.880558 5.828807 -18.32783 11.41118 86.97366 35.69472 -21.21215 -0 0 13.73877 -7.825178 8.762732 4.71639 6.655063 -20.07946 -2.047298 -93.03168 29.24479 19.75261 0 0 -20.30408 3.9434 16.34336 8.855406
2.884891 101.559 14.59433 1.192663 1.715293 1.854089 2.529937 -18.08962 5.339089 -0 8.894533 -0 -5.938053 -10.0089 1.980592 -7.410895 11.47523 -19.45514 -0 11.65693 -0 3.391035 -18.43977 20.9226 -3.784316 -3.585391 4.845009 2.99467 8.810475 -7.652904 1.045365 21.29484 7.510281 3.921878 -24.48593 8.814338 5.688722 -17.91578 11.32052 87.30766 35.63146 -21.6097 -0 0 13.04749 -7.897622 8.943471 4.763228 6.742267 -20.1982 -2.128166 -92.65092 29.0981 19.18122 0 0 -20.85709 3.923404 15.96037 8.846338
3.368797 101.1862 18.03439 1.031762 2.178855 2.372662 2.641836 -17.72529 4.85031 -0 5.063575 -0 -6.220352 -9.143424 2.664241 -7.262155 11.28516 -18.454 -0 14.72456 -0 2.017018 -17.686 19.29637 -3.453292 -3.57479 4.811233 3.02255 8.749249 -7.660603 0.9971353 21.17616 7.523567 3.959627 -24.54633 8.692877 5.568248 -17.47954 11.24683 87.68197 35.56851 -21.99466 -0 0 12.32739 -7.999988 9.155899 4.835344 6.700445 -20.26143 -2.230437 -92.33917 28.92733 18.76645 0 0 -21.14688 3.840575 15.55203 8.92313
